<?xml version="1.0" standalone="no"?>
<!DOCTYPE svg PUBLIC "-//W3C//DTD SVG 20010904//EN"
 "http://www.w3.org/TR/2001/REC-SVG-20010904/DTD/svg10.dtd">
<svg version="1.0" xmlns="http://www.w3.org/2000/svg"
 width="20.000000pt" height="20.000000pt" viewBox="0 0 20.000000 20.000000"
 preserveAspectRatio="xMidYMid meet">
<metadata>
Created by potrace 1.16, written by Peter Selinger 2001-2019
</metadata>
<g transform="translate(0.000000,20.000000) scale(0.013333,-0.013333)"
fill="#000000" stroke="none">
<path d="M0 750 l0 -750 750 0 750 0 0 750 0 750 -750 0 -750 0 0 -750z m737
250 c73 -73 83 -109 13 -46 -22 20 -47 36 -55 36 -23 0 -104 -79 -111 -107 -5
-20 2 -34 42 -74 26 -27 56 -49 66 -49 9 0 33 14 51 30 39 34 58 37 77 14 11
-13 5 -24 -46 -75 -81 -82 -89 -81 -203 36 -78 79 -92 98 -86 117 5 16 153
170 181 188 0 0 32 -32 71 -70z m-1 -81 c25 -26 34 -30 65 -26 33 4 41 0 78
-37 32 -33 38 -45 29 -54 -18 -18 -27 -15 -65 18 -18 17 -42 30 -53 30 -11 0
-35 -13 -53 -30 -19 -16 -41 -30 -48 -30 -18 0 -79 61 -79 79 0 20 60 81 80
81 9 0 29 -14 46 -31z"/>
</g>
</svg>
